<?xml version="1.0" encoding="UTF-8" standalone="no" ?>
<!DOCTYPE svg PUBLIC "-//W3C//DTD SVG 1.1//EN" "http://www.w3.org/Graphics/SVG/1.1/DTD/svg11.dtd">
<svg xmlns="http://www.w3.org/2000/svg" xmlns:xlink="http://www.w3.org/1999/xlink" version="1.1" width="148.9093313316228" height="63.26752697064496" viewBox="124.44342263362276 92.4639546855138 148.9093313316228 63.26752697064496" xml:space="preserve">
<g transform="matrix(4.5617237642 0 0 4.5617235876 198.8980882994 124.0977181708)" id="7kq1Ft3JpV5jsa2wKC-au"  >
<path style="stroke: none; stroke-width: 1; stroke-dasharray: none; stroke-linecap: butt; stroke-dashoffset: 0; stroke-linejoin: miter; stroke-miterlimit: 4; fill: rgb(255,255,255); fill-rule: nonzero; opacity: 1;"  transform=" translate(-112.641, -250.168)" d="M 97.675 256.993 L 97.675 256.993 Q 97.045 256.993 96.744 256.727 Q 96.443 256.461 96.429 256.195 L 96.429 256.195 Q 96.611 255.621 97.255 255.621 L 97.255 255.621 Q 97.535 255.621 97.787 255.726 Q 98.039 255.831 98.305 256.041 L 98.305 256.041 L 98.627 256.279 Q 98.781 256.125 98.851 255.901 L 98.851 255.901 Q 99.019 255.453 99.082 254.55 Q 99.145 253.647 99.145 252.079 L 99.145 252.079 L 99.145 249.909 Q 99.145 249.335 99.138 248.95 Q 99.131 248.565 99.103 248.145 L 99.103 248.145 L 97.997 248.019 L 97.997 247.529 L 100.111 246.675 L 100.321 246.815 L 100.279 248.719 L 100.279 252.107 Q 100.279 253.241 100.223 254.025 Q 100.167 254.809 99.978 255.334 Q 99.789 255.859 99.411 256.237 L 99.411 256.237 Q 99.047 256.601 98.669 256.797 Q 98.291 256.993 97.675 256.993 Z M 99.719 245.135 L 99.719 245.135 Q 99.327 245.135 99.054 244.883 Q 98.781 244.631 98.781 244.239 L 98.781 244.239 Q 98.781 243.833 99.054 243.588 Q 99.327 243.343 99.719 243.343 L 99.719 243.343 Q 100.125 243.343 100.398 243.588 Q 100.671 243.833 100.671 244.239 L 100.671 244.239 Q 100.671 244.631 100.398 244.883 Q 100.125 245.135 99.719 245.135 Z M 104.591 253.689 L 104.591 253.689 Q 103.737 253.689 103.247 253.122 Q 102.757 252.555 102.771 251.169 L 102.771 251.169 L 102.813 247.683 L 101.819 247.473 L 101.819 246.969 L 103.877 246.773 L 104.017 246.913 L 103.947 248.873 L 103.947 251.043 Q 103.947 251.953 104.227 252.324 Q 104.507 252.695 105.067 252.695 L 105.067 252.695 Q 106.047 252.695 107.027 251.785 L 107.027 251.785 L 107.069 247.669 L 106.075 247.473 L 106.075 246.969 L 108.105 246.773 L 108.245 246.913 L 108.203 248.873 L 108.203 252.807 L 109.155 253.003 L 109.155 253.507 L 107.209 253.619 L 107.069 252.373 Q 106.509 253.059 105.872 253.374 Q 105.235 253.689 104.591 253.689 Z M 109.715 256.993 L 109.715 256.993 Q 109.085 256.993 108.784 256.727 Q 108.483 256.461 108.469 256.195 L 108.469 256.195 Q 108.651 255.621 109.295 255.621 L 109.295 255.621 Q 109.575 255.621 109.827 255.726 Q 110.079 255.831 110.345 256.041 L 110.345 256.041 L 110.667 256.279 Q 110.821 256.125 110.891 255.901 L 110.891 255.901 Q 111.059 255.453 111.122 254.55 Q 111.185 253.647 111.185 252.079 L 111.185 252.079 L 111.185 249.909 Q 111.185 249.335 111.178 248.95 Q 111.171 248.565 111.143 248.145 L 111.143 248.145 L 110.037 248.019 L 110.037 247.529 L 112.151 246.675 L 112.361 246.815 L 112.319 248.719 L 112.319 252.107 Q 112.319 253.241 112.263 254.025 Q 112.207 254.809 112.018 255.334 Q 111.829 255.859 111.451 256.237 L 111.451 256.237 Q 111.087 256.601 110.709 256.797 Q 110.331 256.993 109.715 256.993 Z M 111.759 245.135 L 111.759 245.135 Q 111.367 245.135 111.094 244.883 Q 110.821 244.631 110.821 244.239 L 110.821 244.239 Q 110.821 243.833 111.094 243.588 Q 111.367 243.343 111.759 243.343 L 111.759 243.343 Q 112.165 243.343 112.438 243.588 Q 112.711 243.833 112.711 244.239 L 112.711 244.239 Q 112.711 244.631 112.438 244.883 Q 112.165 245.135 111.759 245.135 Z M 117.247 253.507 L 113.999 253.507 L 113.999 253.003 L 115.049 252.807 Q 115.063 252.275 115.07 251.652 Q 115.077 251.029 115.077 250.567 L 115.077 250.567 L 115.077 249.909 Q 115.077 249.335 115.07 248.95 Q 115.063 248.565 115.035 248.145 L 115.035 248.145 L 113.915 248.019 L 113.915 247.529 L 116.071 246.675 L 116.281 246.815 L 116.239 248.719 L 116.239 250.567 Q 116.239 251.029 116.246 251.652 Q 116.253 252.275 116.267 252.807 L 116.267 252.807 L 117.247 253.003 L 117.247 253.507 Z M 115.651 245.135 L 115.651 245.135 Q 115.259 245.135 114.986 244.883 Q 114.713 244.631 114.713 244.239 L 114.713 244.239 Q 114.713 243.833 114.986 243.588 Q 115.259 243.343 115.651 243.343 L 115.651 243.343 Q 116.043 243.343 116.316 243.588 Q 116.589 243.833 116.589 244.239 L 116.589 244.239 Q 116.589 244.631 116.316 244.883 Q 116.043 245.135 115.651 245.135 Z M 125.199 249.335 L 125.199 249.335 L 125.199 249.895 Q 124.317 250.007 123.925 250.329 Q 123.533 250.651 123.533 251.183 L 123.533 251.183 Q 123.533 251.561 123.68 252.002 Q 123.827 252.443 123.974 252.947 Q 124.121 253.451 124.121 254.039 L 124.121 254.039 Q 124.121 254.865 123.554 255.299 Q 122.987 255.733 121.993 255.733 L 121.993 255.733 L 121.363 255.733 L 121.363 255.173 L 121.741 255.131 Q 122.469 255.047 122.784 254.816 Q 123.099 254.585 123.099 253.983 L 123.099 253.983 Q 123.099 253.185 122.945 252.471 Q 122.791 251.757 122.791 251.337 L 122.791 251.337 Q 122.791 250.665 123.099 250.21 Q 123.407 249.755 124.093 249.615 L 124.093 249.615 Q 123.407 249.461 123.099 249.013 Q 122.791 248.565 122.791 247.893 L 122.791 247.893 Q 122.791 247.473 122.945 246.759 Q 123.099 246.045 123.099 245.247 L 123.099 245.247 Q 123.099 244.631 122.784 244.407 Q 122.469 244.183 121.741 244.099 L 121.741 244.099 L 121.363 244.057 L 121.363 243.497 L 121.993 243.497 Q 122.987 243.497 123.554 243.931 Q 124.121 244.365 124.121 245.191 L 124.121 245.191 Q 124.121 245.765 123.974 246.276 Q 123.827 246.787 123.68 247.228 Q 123.533 247.669 123.533 248.047 L 123.533 248.047 Q 123.533 248.565 123.925 248.894 Q 124.317 249.223 125.199 249.335 Z M 127.859 248.607 L 127.859 248.607 Q 127.439 248.607 127.152 248.313 Q 126.865 248.019 126.865 247.613 L 126.865 247.613 Q 126.865 247.193 127.152 246.899 Q 127.439 246.605 127.859 246.605 L 127.859 246.605 Q 128.279 246.605 128.566 246.899 Q 128.853 247.193 128.853 247.613 L 128.853 247.613 Q 128.853 248.019 128.566 248.313 Q 128.279 248.607 127.859 248.607 Z M 128.741 253.101 L 128.741 253.101 Q 128.741 253.941 128.342 254.655 Q 127.943 255.369 127.327 255.88 Q 126.711 256.391 126.039 256.643 L 126.039 256.643 L 125.843 256.167 Q 126.557 255.803 127.103 255.285 Q 127.649 254.767 127.901 253.983 L 127.901 253.983 L 127.383 253.577 Q 127.103 253.353 126.977 253.094 Q 126.851 252.835 126.851 252.569 L 126.851 252.569 Q 126.851 252.205 127.068 251.946 Q 127.285 251.687 127.719 251.687 L 127.719 251.687 Q 127.915 251.687 128.118 251.771 Q 128.321 251.855 128.587 252.093 L 128.587 252.093 Q 128.671 252.359 128.706 252.604 Q 128.741 252.849 128.741 253.101 Z" stroke-linecap="round" />
</g>
</svg>